<?xml version="1.0" standalone="no"?>
<!DOCTYPE svg PUBLIC "-//W3C//DTD SVG 20010904//EN"
 "http://www.w3.org/TR/2001/REC-SVG-20010904/DTD/svg10.dtd">
<svg version="1.0" xmlns="http://www.w3.org/2000/svg"
 width="1080.000000pt" height="1080.000000pt" viewBox="0 0 1080.000000 1080.000000"
 preserveAspectRatio="xMidYMid meet">
<metadata>
Created by potrace 1.14, written by Peter Selinger 2001-2017
</metadata>
<g transform="translate(0.000000,1080.000000) scale(0.100000,-0.100000)"
fill="#000000" stroke="none">
<path d="M5139 10536 c-2 -2 -53 -6 -114 -10 -60 -4 -126 -9 -145 -11 -19 -2
-60 -6 -90 -9 -30 -4 -66 -8 -80 -11 -14 -2 -45 -6 -70 -9 -25 -3 -58 -8 -75
-11 -87 -15 -102 -17 -125 -22 -14 -2 -68 -13 -120 -25 -52 -11 -104 -22 -115
-24 -27 -5 -263 -69 -350 -95 -67 -21 -299 -102 -340 -119 -11 -5 -76 -32
-145 -61 -164 -69 -404 -189 -560 -279 -1144 -666 -1984 -1726 -2364 -2986
-41 -136 -94 -340 -101 -389 -2 -11 -10 -51 -18 -90 -9 -38 -18 -88 -22 -110
-17 -109 -35 -236 -40 -290 -4 -33 -8 -67 -10 -75 -2 -8 -7 -62 -10 -120 -4
-58 -9 -121 -11 -140 -4 -45 -5 -433 0 -525 5 -95 18 -266 21 -287 2 -9 7 -48
10 -85 4 -37 8 -75 10 -83 2 -8 7 -37 10 -65 4 -27 10 -68 15 -90 5 -22 11
-60 15 -85 19 -134 105 -470 175 -680 161 -487 398 -949 717 -1400 37 -52 186
-245 197 -255 6 -5 22 -23 35 -40 73 -96 390 -423 521 -538 88 -78 327 -268
425 -339 650 -467 1431 -786 2215 -904 119 -18 162 -24 225 -30 39 -3 77 -8
86 -9 123 -23 830 -23 949 0 10 2 52 6 94 10 41 3 83 7 93 9 10 2 41 7 68 10
68 9 96 14 195 32 47 9 99 18 115 21 17 2 48 9 70 15 43 11 66 16 105 24 50
10 142 35 290 79 561 168 1125 454 1604 815 137 104 160 122 291 234 97 85
419 406 496 496 44 51 209 255 247 305 99 131 272 393 344 525 14 25 36 63 48
85 129 224 343 725 395 925 3 8 16 53 30 100 62 203 136 546 160 739 4 30 8
61 10 70 1 9 6 50 10 91 4 41 9 89 11 105 22 175 22 762 -1 910 -2 17 -7 58
-10 92 -9 99 -41 322 -60 413 -3 14 -10 50 -16 80 -5 30 -12 66 -15 80 -22
111 -113 428 -168 583 -264 744 -664 1381 -1216 1936 -94 95 -243 234 -310
288 -14 12 -45 38 -70 59 -25 22 -90 73 -145 114 -55 41 -102 77 -105 80 -32
32 -340 229 -521 332 -54 31 -385 198 -393 198 -3 0 -29 11 -58 25 -292 135
-870 307 -1178 350 -25 3 -52 8 -60 10 -8 2 -35 7 -60 10 -25 3 -63 8 -85 11
-22 3 -51 7 -65 9 -14 2 -59 7 -100 10 -41 4 -88 9 -105 12 -36 5 -650 14
-656 9z m501 -191 c74 -3 149 -8 165 -10 17 -2 62 -6 101 -9 39 -4 80 -8 90
-10 11 -2 44 -7 75 -10 31 -4 66 -8 77 -11 20 -3 56 -9 127 -20 60 -10 157
-31 280 -60 455 -110 869 -274 1290 -510 365 -205 728 -481 1040 -790 167
-166 205 -207 321 -345 452 -539 781 -1162 973 -1841 45 -158 105 -423 116
-509 4 -30 8 -58 10 -61 2 -3 6 -31 9 -63 4 -32 8 -61 10 -65 2 -3 7 -40 10
-81 4 -41 9 -88 11 -105 25 -199 25 -765 0 -935 -2 -14 -6 -54 -10 -90 -4 -36
-8 -76 -10 -90 -2 -14 -7 -45 -10 -70 -47 -348 -161 -773 -305 -1135 -53 -134
-209 -460 -275 -575 -21 -36 -45 -78 -55 -95 -69 -120 -209 -329 -310 -465
-213 -284 -431 -517 -740 -789 -19 -17 -82 -68 -139 -114 -326 -260 -660 -464
-1054 -647 -88 -40 -391 -160 -406 -160 -6 0 -19 -4 -29 -10 -31 -17 -238 -78
-424 -124 -205 -51 -406 -87 -615 -111 -27 -3 -61 -8 -78 -10 -134 -18 -681
-26 -845 -12 -41 4 -102 9 -135 12 -58 5 -171 20 -245 31 -19 3 -46 7 -60 9
-14 1 -65 10 -115 20 -49 9 -101 19 -115 21 -131 23 -568 147 -665 189 -16 7
-52 21 -80 30 -110 39 -359 151 -510 229 -340 175 -621 363 -930 620 -130 109
-442 415 -546 536 -35 41 -66 77 -69 80 -3 3 -37 46 -76 95 -453 577 -751
1182 -931 1889 -19 78 -37 150 -38 161 -2 11 -10 56 -19 100 -8 44 -18 95 -21
113 -3 17 -7 44 -10 60 -2 15 -7 50 -10 77 -4 28 -8 57 -10 65 -2 8 -7 51 -11
95 -3 44 -8 87 -9 96 -22 117 -22 682 0 874 2 17 6 59 10 95 3 36 8 76 10 90
13 105 17 135 20 149 1 9 6 36 10 61 10 59 9 55 40 200 35 165 31 150 55 238
12 42 23 84 25 92 16 70 135 419 168 491 9 19 37 84 62 144 64 148 206 428
263 515 8 14 21 34 27 45 57 102 211 328 320 470 546 709 1282 1267 2100 1592
304 122 672 228 925 269 19 3 37 7 40 9 3 2 33 7 65 10 33 4 62 9 65 10 3 2
33 7 65 10 33 4 67 9 75 10 8 2 51 6 95 10 44 4 91 9 105 11 14 2 111 7 215
10 105 4 191 7 192 8 2 2 109 -2 253 -9z"/>
<path d="M5890 9753 c-64 -23 -141 -104 -169 -177 -24 -66 -24 -78 5 -82 24
-4 104 -15 128 -17 13 -1 23 11 35 42 21 53 62 91 99 92 105 4 162 -38 162
-119 0 -75 -71 -121 -165 -106 -49 7 -50 6 -59 -84 -4 -39 -2 -42 22 -47 74
-16 108 -29 134 -55 75 -75 0 -230 -111 -230 -90 0 -161 72 -161 163 l0 44
-47 7 c-125 18 -133 18 -134 5 -15 -167 36 -266 172 -335 27 -13 49 -23 49
-20 0 2 24 -2 54 -9 216 -50 410 91 402 293 -3 69 -37 132 -87 160 -34 20 -37
32 -9 32 29 0 86 55 105 103 72 178 -85 358 -310 356 -38 0 -90 -8 -115 -16z"/>
<path d="M4325 9675 c-5 -2 -36 -11 -68 -20 -50 -14 -57 -19 -53 -38 13 -77
-63 -175 -163 -211 -29 -10 -50 -23 -48 -30 2 -6 12 -37 21 -68 l16 -57 68 20
c103 30 152 42 156 38 1 -2 24 -83 50 -179 26 -96 51 -186 56 -200 4 -14 18
-62 31 -108 13 -48 27 -81 33 -79 6 2 44 12 85 23 40 10 75 24 78 31 4 10 -90
360 -161 603 -7 25 -28 98 -46 163 -18 64 -36 117 -39 116 -3 0 -10 -2 -16 -4z"/>
<path d="M7483 9043 c-81 -109 -206 -278 -280 -376 l-132 -177 75 -56 c41 -30
79 -54 84 -52 5 2 91 113 191 248 100 135 185 249 189 254 5 4 -8 -43 -27
-105 -19 -63 -36 -118 -37 -124 -2 -5 -6 -17 -9 -25 -3 -8 -32 -101 -64 -205
l-59 -191 40 -29 c23 -17 53 -38 67 -48 l27 -17 239 162 c286 195 323 220 323
214 0 -3 -327 -446 -372 -503 -6 -8 13 -28 65 -67 40 -31 78 -56 83 -56 5 0
59 69 121 153 62 84 186 251 276 372 151 201 163 221 148 235 -28 26 -210 160
-217 160 -4 0 -50 -31 -103 -69 -439 -313 -450 -320 -441 -293 5 15 50 155
100 312 50 157 93 291 95 298 4 10 -213 182 -230 182 -3 0 -71 -89 -152 -197z"/>
<path d="M2662 8859 c-57 -14 -155 -72 -215 -127 -163 -153 -164 -382 -3 -477
93 -54 175 -43 376 54 69 33 137 63 153 66 109 27 171 -74 104 -170 -85 -121
-230 -162 -306 -86 -19 19 -20 19 -95 -45 -41 -36 -73 -70 -70 -77 3 -7 25
-27 49 -45 139 -105 326 -68 495 97 101 100 134 166 134 271 1 86 -20 135 -81
196 -63 63 -150 84 -246 59 -28 -7 -113 -44 -187 -81 -156 -77 -204 -88 -237
-52 -58 62 -29 142 76 209 56 36 105 38 153 5 l34 -23 35 30 c19 17 53 47 76
67 l42 37 -22 20 c-78 69 -169 94 -265 72z"/>
<path d="M9175 7521 c-38 -21 -164 -88 -280 -150 -115 -63 -244 -132 -285
-154 -41 -22 -82 -44 -90 -48 -8 -4 -32 -17 -53 -29 l-37 -22 47 -89 c26 -49
51 -89 56 -89 5 0 33 13 61 29 59 33 120 65 346 186 91 48 190 101 220 118 30
16 84 45 120 64 36 19 68 38 71 41 8 8 -82 174 -96 178 -5 2 -41 -14 -80 -35z"/>
<path d="M1584 7314 c-38 -6 -89 -21 -114 -34 -60 -30 -140 -114 -172 -181
-32 -65 -168 -403 -168 -416 0 -5 60 -33 133 -62 72 -29 146 -59 162 -66 17
-7 77 -32 135 -55 58 -23 119 -47 135 -55 17 -7 55 -22 85 -34 30 -12 64 -26
75 -31 11 -5 47 -20 81 -33 l61 -24 83 205 c46 113 89 230 96 259 50 217 -86
416 -346 501 -100 33 -166 40 -246 26z m166 -220 c113 -33 185 -82 223 -152
21 -39 25 -58 23 -107 -2 -33 -10 -76 -19 -95 -27 -60 -45 -104 -52 -127 -3
-13 -12 -23 -19 -23 -13 0 -524 205 -533 213 -2 3 7 33 20 69 59 156 104 210
194 233 53 14 85 11 163 -11z"/>
<path d="M9769 6146 c-2 -2 -40 -7 -84 -11 -81 -7 -122 -11 -185 -20 -19 -3
-64 -7 -100 -10 -36 -3 -105 -10 -155 -16 -49 -6 -108 -12 -130 -14 -22 -2
-65 -6 -95 -10 -30 -3 -80 -8 -110 -11 -67 -8 -71 -10 -66 -37 3 -12 8 -53 11
-92 3 -38 7 -83 9 -100 3 -16 7 -62 11 -100 3 -39 8 -79 9 -90 2 -11 7 -58 12
-105 4 -47 9 -88 10 -92 1 -5 2 -19 3 -32 1 -25 2 -25 96 -12 17 2 42 5 57 5
20 1 26 6 24 19 -2 9 -7 49 -10 87 -4 39 -8 86 -11 105 -2 19 -7 58 -10 85 -2
28 -7 76 -11 108 l-6 57 29 1 c15 0 39 2 53 4 14 1 57 6 95 10 39 3 84 8 100
10 63 8 165 19 285 30 197 19 203 20 197 48 -3 12 -9 58 -12 102 -7 82 -9 88
-16 81z"/>
<path d="M1849 5406 c-2 -2 -42 -7 -89 -11 -47 -3 -92 -8 -100 -10 -15 -4 -74
-10 -195 -20 -33 -3 -71 -7 -85 -9 -14 -3 -54 -7 -90 -11 -36 -3 -81 -8 -100
-10 -19 -3 -66 -7 -105 -11 -38 -4 -79 -8 -90 -9 -11 -2 -30 -4 -41 -4 -23 -1
-23 -4 -10 -96 2 -16 5 -46 5 -67 1 -42 -18 -41 211 -13 38 5 144 15 200 20
57 5 174 17 193 21 9 1 17 1 17 -1 0 -2 -128 -104 -285 -226 -157 -122 -286
-227 -286 -233 -2 -14 -2 -9 6 -101 3 -44 11 -85 16 -91 6 -7 25 -8 57 -3 26
4 81 10 122 14 41 3 86 8 100 10 14 2 54 6 90 10 36 3 79 7 95 9 17 2 59 7 95
11 36 3 81 8 100 10 19 2 67 7 105 11 39 3 77 8 85 9 8 2 30 4 48 4 l33 1 -7
73 c-4 39 -8 79 -10 87 -1 8 -3 21 -3 28 -1 8 -10 11 -25 8 -14 -2 -60 -7
-103 -11 -43 -3 -89 -8 -103 -10 -14 -2 -56 -7 -95 -10 -38 -4 -86 -8 -105
-11 -19 -2 -62 -6 -95 -9 -33 -3 -66 -8 -72 -10 -37 -13 13 30 273 230 l284
220 -5 55 c-15 143 -21 170 -36 156z"/>
<path d="M8795 4509 c-2 -8 -43 -126 -90 -264 -48 -137 -94 -274 -105 -302
-10 -29 -17 -53 -16 -53 2 0 39 -13 84 -29 72 -26 81 -28 87 -13 4 9 36 103
72 207 36 105 69 194 73 199 5 5 34 -1 67 -12 646 -224 653 -226 658 -220 4 6
65 192 62 193 -1 1 -42 16 -92 33 -247 83 -482 164 -500 172 -11 4 -76 27
-144 50 -69 23 -130 44 -138 47 -7 3 -15 -1 -18 -8z"/>
<path d="M2085 3605 c-86 -16 -144 -38 -213 -83 -280 -183 -326 -506 -103
-739 51 -54 104 -88 176 -113 243 -84 565 90 645 349 80 258 -112 555 -380
588 -19 2 -39 5 -45 7 -5 2 -41 -3 -80 -9z m202 -216 c75 -36 132 -128 135
-218 3 -66 -38 -147 -105 -207 -68 -61 -180 -115 -249 -119 -165 -10 -294 160
-242 319 22 65 126 170 207 209 101 49 176 54 254 16z"/>
<path d="M8039 3088 c-30 -35 -57 -64 -61 -66 -19 -9 -4 -33 50 -78 31 -27 75
-65 97 -85 22 -20 117 -103 210 -184 94 -81 198 -172 233 -203 86 -75 112 -95
112 -85 0 4 21 31 46 58 61 68 79 94 68 104 -5 5 -67 59 -139 121 -71 62 -157
136 -190 165 -222 196 -361 315 -366 315 -3 0 -30 -28 -60 -62z"/>
<path d="M3485 2325 c-22 -6 -59 -21 -81 -33 -51 -26 -156 -130 -152 -150 2
-9 40 -35 86 -58 l84 -42 36 40 c89 99 222 98 319 -4 40 -42 54 -78 58 -152 3
-43 -3 -77 -19 -122 -62 -170 -181 -274 -301 -261 -124 13 -207 99 -210 216
l0 53 -85 44 -85 45 -14 -33 c-18 -45 -17 -163 3 -221 57 -164 239 -287 428
-289 208 -3 401 161 466 397 36 131 20 264 -45 368 -97 155 -327 251 -488 202z"/>
<path d="M7055 2301 c-50 -13 -147 -56 -193 -85 -58 -36 -128 -109 -153 -158
-66 -129 -10 -307 114 -363 68 -31 177 -28 342 8 152 34 185 34 214 3 42 -45
34 -99 -22 -146 -89 -75 -218 -78 -257 -4 l-12 22 -89 -46 c-49 -25 -89 -49
-89 -54 0 -18 55 -86 86 -108 135 -91 372 -43 516 105 146 151 94 396 -95 442
-58 14 -153 5 -301 -27 -125 -28 -180 -26 -211 4 -72 73 -12 176 129 224 89
30 143 18 199 -45 l28 -32 85 42 c46 23 84 47 84 54 0 43 -95 132 -166 156
-44 16 -163 20 -209 8z"/>
<path d="M5019 1867 c0 -7 -1 -46 -1 -87 l-1 -75 248 -2 c136 -1 249 -4 252
-6 2 -3 5 -54 5 -113 l1 -109 -179 -2 c-98 -1 -201 -2 -229 -2 l-50 -1 0 -80
0 -80 205 -1 c113 -1 215 0 228 1 23 2 24 1 24 -110 0 -22 -1 -51 -1 -64 l-1
-25 -241 1 c-132 0 -243 -2 -246 -5 -7 -7 -7 -157 0 -164 3 -3 161 -6 351 -7
l346 -2 0 31 c1 61 2 881 1 895 -1 13 -48 15 -356 17 -262 1 -355 -2 -356 -10z"/>
</g>
</svg>
